<svg width="40" height="49" xmlns="http://www.w3.org/2000/svg"><g fill="none" fill-rule="evenodd"><path fill="#EBEBEB" d="M.427 3.433H29.6v42.889H.427z"/><path d="M26.168 17.157H4.718a.858.858 0 1 1 0-1.715h21.45a.858.858 0 1 1 0 1.715zm-12.87 5.147h-8.58a.858.858 0 1 1 0-1.715h8.58a.858.858 0 1 1 0 1.715zm12.012 0h-8.58a.858.858 0 1 1 0-1.715h8.58a.858.858 0 1 1 0 1.715zM13.298 27.45h-8.58a.858.858 0 1 1 0-1.715h8.58a.858.858 0 1 1 0 1.716zm12.012 0h-8.58a.858.858 0 1 1 0-1.715h8.58a.858.858 0 1 1 0 1.716zm-12.87 9.436H4.717a.858.858 0 1 1 0-1.715h7.723a.858.858 0 1 1 0 1.715zm12.87 0h-7.722a.858.858 0 1 1 0-1.715h7.722a.858.858 0 1 1 0 1.715zm-14.586 3.431h-4.29a.858.858 0 1 1 0-1.715h4.29a.858.858 0 1 1 0 1.715zm12.87 0h-4.29a.858.858 0 1 1 0-1.715h4.29a.858.858 0 1 1 0 1.715z" fill="#A8A8A8"/><path d="M17.588 9.438a2.574 2.574 0 1 1-5.147-.001 2.574 2.574 0 0 1 5.147 0z" fill="#E06661"/><path d="M3.86 1.718v1.715H29.6v38.6h1.717c.947 0 1.716-.768 1.716-1.716v-38.6c0-.947-.769-1.715-1.716-1.715H5.575C4.628.002 3.86.77 3.86 1.718z" fill="#FBD699"/><path fill="#6CBAE5" d="M24.227 38.974l10.92-10.917 2.428 2.426-10.922 10.918z"/><path d="M35.147 28.057l1.82-1.82a1.717 1.717 0 0 1 2.427 2.427l-1.82 1.82-2.427-2.427z" fill="#4799CF"/><path fill="#DBDBDB" d="M21.8 41.4l1.794-.225.858.858-.225 1.794-1.214 3.64-6.283 1.428 1.428-6.28z"/><path d="M21.192 45.292a.858.858 0 0 1-.607-1.464l1.82-1.82a.858.858 0 0 1 1.213 1.213l-1.82 1.82a.858.858 0 0 1-.606.251z" fill="#CBCBCB"/><path fill="#4799CF" d="M24.227 38.974l2.426 2.427-2.426 2.426L21.8 41.4z"/><path fill="#B6534F" d="M32.114 31.09l1.213-1.213 2.428 2.426-1.214 1.213z"/></g></svg>