<svg id="Capa_1" data-name="Capa 1" xmlns="http://www.w3.org/2000/svg" viewBox="0 0 500 500"><defs><style>.cls-1{fill:#fff;}</style></defs><path class="cls-1" d="M471.41,195.75l-210.25-154a18.38,18.38,0,0,0-22,0L29.09,195.62a18.58,18.58,0,0,0-4.84,25.85,18.18,18.18,0,0,0,15.12,7.94,20.32,20.32,0,0,0,11.52-3.68L250.17,79.81,449.4,225.69a18.43,18.43,0,0,0,10.9,3.63h.1c9.67.4,18.59-8.3,18.61-18.56A18.69,18.69,0,0,0,471.41,195.75Z"/><path class="cls-1" d="M411.62,229.66h-.08A18.62,18.62,0,0,0,393,248.26V424.64H314.86V331.58a64.76,64.76,0,0,0-64.59-64.79h-.11a64.81,64.81,0,0,0-64.69,64.78v93.07H107.41V248.31a18.6,18.6,0,0,0-37.19,0v195a18.62,18.62,0,0,0,18.59,18.6H204.08a18.71,18.71,0,0,0,18.51-17.15l0-113.06a27.51,27.51,0,0,1,55,0V443l0,1.33,0,.42a18.66,18.66,0,0,0,18.51,17.18h115.3A18.63,18.63,0,0,0,430,443.28V248.34A18.65,18.65,0,0,0,411.62,229.66Z"/></svg>