<svg width="50" height="53" xmlns="http://www.w3.org/2000/svg"><g fill="none" fill-rule="evenodd"><path fill="#F93030" d="M24.859 0h3.807v2.485h-3.807z"/><path fill="#2D4151" d="M24.859 0h1v5.591h-1z"/><path d="M40.143 19.4c0 8.374-6.79 15.16-15.167 15.16-8.378 0-15.168-6.786-15.168-15.16 0-8.371 6.79-15.157 15.168-15.157 6.03 0 11.238 3.516 13.682 8.609a15.081 15.081 0 0 1 1.485 6.549z" fill="#CCC"/><path d="M38.658 12.852H24.976v-8.61c6.03 0 11.238 3.517 13.682 8.61z" fill="#B3B3B3"/><path fill="#B3B3B3" d="M9.918 11.136h30.116v3.696H9.918z"/><path d="M13.192 11.664h1v2.64h-1zm3.238 0h1v2.64h-1zm3.24 0h1v2.64h-1zm3.237 0h1v2.64h-1zm3.239 0h1v2.64h-1zm3.238 0h1v2.64h-1zm3.239 0h1v2.64h-1zm3.238 0h1v2.64h-1zM8.647 10.173h32.657v1H8.647z" fill="gray"/><path fill="#CCC" d="M44.556 52.226V14.822H5.395v37.404H.045v.725h49.862v-.725z"/><path fill="#B3B3B3" d="M16.933 36.658h8.275V52.15h-8.275z"/><path fill="#2D4151" d="M17.516 37.24h7.11v14.327h-7.11z"/><path d="M24.21 37.748v13.385h-5.595s4.91-5.18 5.595-13.385z" fill="#FCFAFA" opacity=".2"/><path fill="#B3B3B3" d="M17.225 40.676h7.692v1h-7.692z"/><path fill="#B3B3B3" d="M24.743 36.658h8.275V52.15h-8.275z"/><path fill="#2D4151" d="M25.326 37.24h7.11v14.327h-7.11z"/><path d="M32.02 37.748v13.385h-5.595s4.91-5.18 5.595-13.385z" fill="#FCFAFA" opacity=".2"/><path fill="#B3B3B3" d="M25.035 40.676h7.692v1h-7.692zm9.719-7.202h8.275v15.492h-8.275z"/><path fill="#2D4151" d="M35.337 34.056h7.11v14.327h-7.11z"/><path d="M42.03 34.564v13.385h-5.594s4.91-5.18 5.595-13.385z" fill="#FCFAFA" opacity=".2"/><path fill="#B3B3B3" d="M35.045 37.493h7.692v1h-7.692zM6.922 33.474h8.275v15.492H6.922z"/><path fill="#2D4151" d="M7.504 34.056h7.11v14.327h-7.11z"/><path d="M14.199 34.564v13.385H8.604s4.91-5.18 5.595-13.385z" fill="#FCFAFA" opacity=".2"/><path fill="#B3B3B3" d="M7.213 37.493h7.692v1H7.213zm27.541-20.374h8.275V32.61h-8.275z"/><path fill="#2D4151" d="M35.337 17.7h7.11v14.328h-7.11z"/><path d="M42.03 18.209v13.385h-5.594s4.91-5.18 5.595-13.385z" fill="#FCFAFA" opacity=".2"/><path fill="#B3B3B3" d="M35.045 21.138h7.692v1h-7.692zM6.922 17.119h8.275V32.61H6.922z"/><path fill="#2D4151" d="M7.504 17.7h7.11v14.328h-7.11z"/><path d="M14.199 18.209v13.385H8.604s4.91-5.18 5.595-13.385z" fill="#FCFAFA" opacity=".2"/><path fill="#B3B3B3" d="M7.213 21.138h7.692v1H7.213zm8.987-4.019h8.275V32.61H16.2z"/><path fill="#2D4151" d="M16.782 17.7h7.11v14.328h-7.11z"/><path d="M23.476 18.209v13.385h-5.594s4.909-5.18 5.594-13.385z" fill="#FCFAFA" opacity=".2"/><path fill="#B3B3B3" d="M16.49 21.138h7.693v1H16.49zm8.987-4.019h8.275V32.61h-8.275z"/><path fill="#2D4151" d="M26.06 17.7h7.11v14.328h-7.11z"/><path d="M32.753 18.209v13.385H27.16s4.91-5.18 5.594-13.385z" fill="#FCFAFA" opacity=".2"/><path fill="#B3B3B3" d="M25.768 21.138h7.692v1h-7.692z"/><path stroke="#595959" stroke-width=".5" fill="#FFF" d="M15.729 33.382h18.493v2.485H15.729z"/><g fill="#2D4151"><path d="M20.22 33.87v.162h-.734v.489h.69v.162h-.69v.536h.765v.162h-.947v-1.51zm1 0l.342 1.262h.005l.362-1.262h.256v1.51h-.182v-1.225h-.007l-.352 1.226h-.16l-.356-1.226h-.005v1.226h-.182v-1.51z"/><path d="M22.916 33.87h.563a.32.32 0 0 1 .138.032.416.416 0 0 1 .2.2c.02.043.03.087.03.131a.548.548 0 0 1-.01.107.396.396 0 0 1-.09.182.246.246 0 0 1-.08.056.27.27 0 0 1 .11.054.365.365 0 0 1 .124.202c.01.04.015.08.015.12 0 .049-.01.099-.031.15a.495.495 0 0 1-.209.238.306.306 0 0 1-.149.039h-.61v-1.51zm.185.64h.341a.17.17 0 0 0 .086-.025.304.304 0 0 0 .122-.142.223.223 0 0 0 .018-.085.228.228 0 0 0-.056-.147.249.249 0 0 0-.072-.056.206.206 0 0 0-.098-.023h-.34v.477zm0 .709h.36a.225.225 0 0 0 .097-.023.309.309 0 0 0 .148-.147.226.226 0 0 0 .025-.102.299.299 0 0 0-.071-.192.281.281 0 0 0-.085-.067.236.236 0 0 0-.112-.026h-.362v.557zm2.087-1.349l.489 1.51h-.201l-.14-.476h-.513l-.14.477h-.2l.486-1.51h.219zm-.317.872h.417l-.207-.71h-.003l-.207.71z" fill-rule="nonzero"/><path d="M26.43 34.893c0 .045.008.09.023.134a.351.351 0 0 0 .17.198c.04.02.085.03.134.03.04 0 .08-.005.118-.015a.283.283 0 0 0 .1-.05.248.248 0 0 0 .067-.08.242.242 0 0 0 .025-.115.225.225 0 0 0-.035-.126.339.339 0 0 0-.09-.091.492.492 0 0 0-.117-.061 1.194 1.194 0 0 0-.12-.036.683.683 0 0 1-.156-.056.536.536 0 0 1-.134-.094.45.45 0 0 1-.094-.132.39.39 0 0 1-.037-.17.33.33 0 0 1 .04-.158.425.425 0 0 1 .102-.126.48.48 0 0 1 .316-.113.48.48 0 0 1 .23.049.425.425 0 0 1 .218.275.588.588 0 0 1 .021.148h-.182a.316.316 0 0 0-.179-.286.252.252 0 0 0-.108-.024.324.324 0 0 0-.1.016.279.279 0 0 0-.088.047.244.244 0 0 0-.063.074.223.223 0 0 0 .007.215c.02.033.047.062.079.086a.415.415 0 0 0 .106.058c.039.015.076.027.11.036.06.014.117.033.172.06a.59.59 0 0 1 .146.096.445.445 0 0 1 .102.136c.025.052.037.11.037.176a.425.425 0 0 1-.036.181.364.364 0 0 1-.103.132.473.473 0 0 1-.157.083.645.645 0 0 1-.196.028.468.468 0 0 1-.19-.041.539.539 0 0 1-.278-.278.503.503 0 0 1-.042-.206h.182zm1.667 0c0 .045.007.09.023.134a.351.351 0 0 0 .17.198c.04.02.085.03.133.03a.475.475 0 0 0 .12-.015.283.283 0 0 0 .099-.05.248.248 0 0 0 .067-.08.242.242 0 0 0 .025-.115.225.225 0 0 0-.035-.126.339.339 0 0 0-.09-.091.492.492 0 0 0-.117-.061 1.194 1.194 0 0 0-.121-.036.683.683 0 0 1-.155-.056.536.536 0 0 1-.134-.094.45.45 0 0 1-.095-.132.39.39 0 0 1-.036-.17.33.33 0 0 1 .039-.158.425.425 0 0 1 .103-.126.48.48 0 0 1 .316-.113.48.48 0 0 1 .23.049.425.425 0 0 1 .217.275.588.588 0 0 1 .022.148h-.182a.316.316 0 0 0-.179-.286.252.252 0 0 0-.108-.024.324.324 0 0 0-.101.016.279.279 0 0 0-.088.047.244.244 0 0 0-.062.074.223.223 0 0 0 .007.215c.02.033.047.062.079.086a.415.415 0 0 0 .106.058c.039.015.075.027.11.036.06.014.117.033.172.06a.59.59 0 0 1 .146.096.445.445 0 0 1 .101.136c.026.052.038.11.038.176a.425.425 0 0 1-.036.181.364.364 0 0 1-.103.132.473.473 0 0 1-.157.083.645.645 0 0 1-.196.028.468.468 0 0 1-.191-.041.539.539 0 0 1-.277-.278.503.503 0 0 1-.042-.206h.182zm1.605-1.023l.364.715h.005l.364-.715h.212l-.488.886v.625h-.183v-.625l-.486-.886z"/></g><path d="M38.962 41.769a5.594 5.594 0 0 1-.303-3.838l.925-3.306-.622 7.144zm3.361 1.398l-.28.257a1.693 1.693 0 0 1-2.46-.18v-2.64l2.74 2.563z" fill="#B51D1D"/><path fill="gray" d="M38.962 32.61h1v19.616h-1z"/><path d="M39.584 33.304s2.428 2.796 1.573 5.359c-.854 2.562 1.166 4.504 1.166 4.504s-1.486-.119-2.74-1.786c-1.466-1.952 0-8.077 0-8.077z" fill="#F93030"/><path fill="#F93030" d="M38.962 38.177l.622.932v-5.805h-.622z"/><path d="M23.48 44.41h1v3.455h-1zm2.603 0h1v3.455h-1z" fill="#CCC"/></g></svg>