<svg id="Capa_1" data-name="Capa 1" xmlns="http://www.w3.org/2000/svg" viewBox="0 0 250 250"><defs><style>.cls-1{fill:#c84058;}.cls-2{fill:#fff;}</style></defs><path id="Trazado_115" data-name="Trazado 115" class="cls-1" d="M143,238.53A115,115,0,0,0,125,9.92h0a115,115,0,0,0-115,115h0a115,115,0,0,0,97,113.61"/><path id="Trazado_116" data-name="Trazado 116" class="cls-1" d="M100,240.06V158.59H70.36V124.9H100V99.22c0-29.22,17.41-45.36,44-45.36a178.22,178.22,0,0,1,26.1,2.28V84.85h-14.7c-14.48,0-19,9-19,18.2v21.87h32.32l-5.17,33.69H136.38v81.47"/><path id="Trazado_117" data-name="Trazado 117" class="cls-2" d="M136.39,240.06V158.59h27.15l5.18-33.69H136.39V103c0-9.22,4.51-18.2,19-18.2h14.7V56.14A178.2,178.2,0,0,0,144,53.86c-26.63,0-44,16.14-44,45.36V124.9H70.36v33.69H100v81.47"/></svg>