<svg id="Capa_1" data-name="Capa 1" xmlns="http://www.w3.org/2000/svg" viewBox="0 0 250 250"><defs><style>.cls-1{fill:#c84058;}.cls-2{fill:#fff;}</style></defs><path id="Trazado_111" data-name="Trazado 111" class="cls-1" d="M125,240A115,115,0,0,1,10,125h0A115,115,0,1,1,125,240h0"/><g id="Grupo_43" data-name="Grupo 43"><g id="Grupo_42" data-name="Grupo 42"><path id="Trazado_112" data-name="Trazado 112" class="cls-2" d="M158.9,80.9a8,8,0,0,0,0,16h0a8,8,0,0,0,8-8h0A8,8,0,0,0,158.9,80.9Z"/><path id="Trazado_113" data-name="Trazado 113" class="cls-2" d="M123.27,91.18a33.66,33.66,0,1,0,33.66,33.66A33.7,33.7,0,0,0,123.27,91.18Zm0,55.22a21.56,21.56,0,1,1,21.56-21.56A21.58,21.58,0,0,1,123.27,146.4Z"/><path id="Trazado_114" data-name="Trazado 114" class="cls-2" d="M150,193.18H95.43a41.1,41.1,0,0,1-41.05-41.05V97.56A41.09,41.09,0,0,1,95.43,56.5H150a41.1,41.1,0,0,1,41.06,41.06v54.57A41.11,41.11,0,0,1,150,193.18ZM95.43,69.35a28.23,28.23,0,0,0-28.2,28.2v54.57a28.22,28.22,0,0,0,28.2,28.2H150a28.23,28.23,0,0,0,28.2-28.19V97.55A28.23,28.23,0,0,0,150,69.35Z"/></g></g></svg>