<?xml version="1.0" encoding="utf-8"?>
<!-- Generator: Adobe Illustrator 24.2.3, SVG Export Plug-In . SVG Version: 6.00 Build 0)  -->
<svg version="1.1" id="Capa_1" xmlns="http://www.w3.org/2000/svg" xmlns:xlink="http://www.w3.org/1999/xlink" x="0px" y="0px"
	 viewBox="0 0 1000 1000" style="enable-background:new 0 0 1000 1000;" xml:space="preserve">
<style type="text/css">
	.st0{fill:#4AD0FF;}
	.st1{fill:#FFFFFF;}
</style>
<g>
	<path class="st0" d="M271.07,85.11c-19.38-10.66-41.63-16.75-65.26-16.75C130.93,68.37,70,129.29,70,204.18
		c0,74.88,60.93,135.81,135.82,135.81l0,0c23.63,0,45.87-6.08,65.26-16.75h539.86c65.66,0,119.07-53.41,119.07-119.06
		c0-65.66-53.41-119.07-119.07-119.07H271.07z M810.93,110.31c51.77,0,93.87,42.12,93.87,93.88c0,51.76-42.11,93.87-93.87,93.87
		H303.87c22.79-23.91,36-54.72,37.59-87.17c1.83-36.66-11.29-73.03-37.59-100.58H810.93z M205.82,93.56
		c61.21,0,110.61,49.94,110.61,110.62c0,60.17-48.89,110.61-110.61,110.61c-61,0-110.62-49.62-110.62-110.61
		C95.19,143.18,144.82,93.56,205.82,93.56L205.82,93.56z M205.82,93.56"/>
	<path class="st0" d="M205.82,931.63c23.63,0,45.87-6.09,65.26-16.75h539.86c65.66,0,119.07-53.41,119.07-119.07
		c0-65.65-53.41-119.07-119.07-119.07H271.07C251.69,666.09,229.45,660,205.82,660C130.93,660,70,720.93,70,795.82
		C70,870.71,130.93,931.63,205.82,931.63L205.82,931.63z M810.93,701.95c51.77,0,93.87,42.11,93.87,93.88
		c0,51.76-42.11,93.87-93.87,93.87H303.86c24.22-25.36,37.76-58.79,37.76-93.87c0-34.92-13.42-68.36-37.75-93.88H810.93z
		 M205.82,685.2c61.49,0,110.61,50.2,110.61,110.61c0,60.98-49.63,110.62-110.61,110.62c-61,0-110.62-49.62-110.62-110.62
		C95.19,734.83,144.82,685.2,205.82,685.2L205.82,685.2z M205.82,685.2"/>
	<path class="st0" d="M194.59,175.71v76.86c0,6.95,5.64,12.59,12.6,12.59c6.96,0,12.59-5.64,12.59-12.59V155.8
		c0-4.34-2.23-8.37-5.9-10.68c-3.68-2.3-8.28-2.56-12.18-0.66l-16.22,7.84c-6.26,3.03-8.88,10.56-5.85,16.82
		C182.37,174.78,188.77,177.47,194.59,175.71L194.59,175.71z M194.59,175.71"/>
	<path class="st0" d="M755.48,540.15c-3.45,3.65-4.41,9.01-2.42,13.64c1.99,4.62,6.54,7.61,11.58,7.61h59.09
		c6.96,0,12.6-5.64,12.6-12.6c0-6.96-5.64-12.59-12.6-12.59h-29.84l25.66-27.13c0.08-0.07,0.15-0.15,0.22-0.23
		c8.75-9.72,13.03-21.66,12.06-33.64c-0.91-11.16-6.31-21.24-15.21-28.36c-8.93-7.16-20.3-9.78-32.01-7.39
		c-13.12,2.69-24.74,11.37-31.08,23.23c-3.28,6.14-0.97,13.77,5.16,17.05c6.13,3.28,13.76,0.97,17.05-5.16
		c2.81-5.25,8.15-9.25,13.92-10.43c3-0.62,7.38-0.7,11.2,2.36c3.48,2.79,5.51,6.51,5.85,10.74c0.4,4.96-1.58,10.15-5.58,14.65
		L755.48,540.15z M755.48,540.15"/>
	<path class="st0" d="M215.13,832.02h-25.2c-6.96,0-12.6,5.64-12.6,12.6c0,6.96,5.64,12.59,12.6,12.59h25.2c20.4,0,37-16.6,37-37
		c0-9.34-3.48-17.88-9.2-24.4c5.73-6.52,9.2-15.06,9.2-24.4c0-20.41-16.6-37-37-37h-25.2c-6.96,0-12.6,5.64-12.6,12.59
		c0,6.96,5.64,12.6,12.6,12.6h25.2c6.51,0,11.8,5.3,11.8,11.8c0,6.51-5.29,11.8-11.8,11.8h-25.2c-6.96,0-12.6,5.64-12.6,12.59
		c0,6.96,5.64,12.6,12.6,12.6h25.2c6.51,0,11.8,5.3,11.8,11.8C226.94,826.73,221.64,832.02,215.13,832.02L215.13,832.02z
		 M215.13,832.02"/>
	<path class="st0" d="M925.98,467.64c-2.79-11.65-7.13-22.98-13.04-33.66c-21.48-38.79-61.65-65-105.78-69.17
		c-4.32-0.41-8.65-0.61-12.98-0.61c-23.63,0-45.87,6.08-65.26,16.74H189.07C123.41,380.93,70,434.35,70,500
		s53.41,119.07,119.07,119.07h539.86c19.38,10.66,41.63,16.75,65.26,16.75c45.01,0,87.74-22.98,112.74-60.37
		C928.18,543.65,934.71,504.12,925.98,467.64z M901.61,526.4c-12.76,49.44-56.32,84.22-107.43,84.22
		c-61.1,0-110.61-49.81-110.61-110.62c0-60.34,49.06-110.61,110.61-110.61c51.11,0,95.29,34.63,107.43,84.22
		C901.61,473.6,908.22,500.79,901.61,526.4z M189.07,406.12h507.07c-25.9,27.14-39.46,63.35-37.59,100.58
		c1.55,31.65,14.28,62.75,37.59,87.18H189.07c-51.77,0-93.87-42.12-93.87-93.88C95.19,448.24,137.3,406.12,189.07,406.12
		L189.07,406.12z M189.07,406.12"/>
	<path class="st0" d="M399.48,759.62h153.65c6.96,0,12.59-5.65,12.59-12.6c0-6.96-5.64-12.59-12.59-12.59H399.48
		c-6.96,0-12.59,5.64-12.59,12.59C386.88,753.97,392.52,759.62,399.48,759.62L399.48,759.62z M399.48,759.62"/>
	<path class="st0" d="M399.48,809.07h332.72c6.96,0,12.6-5.65,12.6-12.6c0-6.96-5.64-12.6-12.6-12.6H399.48
		c-6.96,0-12.59,5.65-12.59,12.6C386.88,803.42,392.52,809.07,399.48,809.07L399.48,809.07z M399.48,809.07"/>
	<path class="st0" d="M399.48,858.52h332.72c6.96,0,12.6-5.65,12.6-12.6c0-6.96-5.64-12.59-12.6-12.59H399.48
		c-6.96,0-12.59,5.64-12.59,12.59C386.88,852.87,392.52,858.52,399.48,858.52L399.48,858.52z M399.48,858.52"/>
	<path class="st0" d="M553.13,141.49H399.48c-6.96,0-12.59,5.64-12.59,12.59s5.64,12.6,12.59,12.6h153.65
		c6.96,0,12.59-5.65,12.59-12.6S560.08,141.49,553.13,141.49L553.13,141.49z M553.13,141.49"/>
	<path class="st0" d="M732.19,190.93H399.48c-6.96,0-12.59,5.65-12.59,12.6s5.64,12.6,12.59,12.6h332.72c6.96,0,12.6-5.65,12.6-12.6
		S739.16,190.93,732.19,190.93L732.19,190.93z M732.19,190.93"/>
	<path class="st0" d="M732.19,240.38H399.48c-6.96,0-12.59,5.65-12.59,12.6c0,6.96,5.64,12.59,12.59,12.59h332.72
		c6.96,0,12.6-5.64,12.6-12.59C744.8,246.03,739.16,240.38,732.19,240.38L732.19,240.38z M732.19,240.38"/>
	<path class="st0" d="M241.04,463.15h153.65c6.96,0,12.59-5.64,12.59-12.6c0-6.96-5.64-12.59-12.59-12.59H241.04
		c-6.96,0-12.6,5.64-12.6,12.59C228.44,457.51,234.07,463.15,241.04,463.15L241.04,463.15z M241.04,463.15"/>
	<path class="st0" d="M241.04,512.6h332.72c6.95,0,12.59-5.64,12.59-12.6c0-6.96-5.64-12.59-12.59-12.59H241.04
		c-6.96,0-12.6,5.64-12.6,12.59C228.44,506.96,234.07,512.6,241.04,512.6L241.04,512.6z M241.04,512.6"/>
	<path class="st0" d="M241.04,562.05h332.72c6.95,0,12.59-5.65,12.59-12.6c0-6.96-5.64-12.6-12.59-12.6H241.04
		c-6.96,0-12.6,5.64-12.6,12.6C228.44,556.4,234.07,562.05,241.04,562.05L241.04,562.05z M241.04,562.05"/>
</g>
</svg>
