<?xml version="1.0" encoding="utf-8"?>
<!-- Generator: Adobe Illustrator 24.2.3, SVG Export Plug-In . SVG Version: 6.00 Build 0)  -->
<svg version="1.1" id="Capa_1" xmlns="http://www.w3.org/2000/svg" xmlns:xlink="http://www.w3.org/1999/xlink" x="0px" y="0px"
	 viewBox="0 0 1000 1000" style="enable-background:new 0 0 1000 1000;" xml:space="preserve">
<style type="text/css">
	.st0{fill:#4AD0FF;}
	.st1{fill:#FFFFFF;}
</style>
<g>
	<path class="st0" d="M568,65l-457.45-0.2c-25.16,0-45.64,20.47-45.64,45.64v280.44c0,25.16,20.47,45.64,45.64,45.64h27.11
		c3.08,0,5.91,1.25,7.99,3.52c2.09,2.28,3.1,5.24,2.82,8.34c-1.14,13.24-3.31,24.76-6.45,34.27c-3.09,9.38-0.23,19.51,7.3,25.84
		c4.37,3.67,9.76,5.55,15.19,5.55c3.84,0,7.7-0.94,11.27-2.84c23.62-12.67,54.31-34.66,66.34-67.46c1.59-4.32,5.68-7.22,10.22-7.22
		h315.58c25.16,0,45.64-20.47,45.64-45.64V110.43c-0.01-25.16-20.48-45.64-45.64-45.64l0,0 M567.94,90.3
		c11.1,0,20.14,9.03,20.14,20.13v280.44c0,11.1-9.03,20.13-20.14,20.13H252.36c-15.18,0-28.91,9.62-34.16,23.93
		c-8.69,23.71-31.63,40.93-50.71,51.71c3.08-10.5,5.23-22.6,6.4-36.07c0.89-10.15-2.56-20.28-9.44-27.78
		c-6.87-7.49-16.63-11.79-26.79-11.79h-27.11c-11.1,0-20.13-9.03-20.13-20.13V110.43c0-11.1,9.03-20.13,20.13-20.13h303.49H567.94z
		 M567.94,64.8"/>
	<path class="st0" d="M199.61,127.83c-40.7,0-73.82,33.11-73.82,73.82s33.12,73.82,73.82,73.82c16,0,30.82-5.13,42.92-13.82l9.6,9.6
		c2.49,2.49,5.76,3.73,9.01,3.73c3.27,0,6.53-1.24,9.01-3.73c4.98-4.98,4.98-13.06,0-18.04l-9.76-9.76
		c8.21-11.89,13.02-26.29,13.02-41.8C273.43,160.95,240.32,127.83,199.61,127.83L199.61,127.83z M241.92,224.96l-10.82-10.83
		c-4.98-4.98-13.05-4.98-18.04,0c-4.98,4.98-4.98,13.06,0,18.04l11.09,11.08c-7.2,4.26-15.58,6.71-24.53,6.71
		c-26.64,0-48.32-21.67-48.32-48.32s21.68-48.32,48.32-48.32c26.64,0,48.32,21.67,48.32,48.32
		C247.93,210.1,245.74,218.05,241.92,224.96L241.92,224.96z M241.92,224.96"/>
	<path class="st0" d="M539.94,202.44H425.62c-7.05,0-12.75,5.7-12.75,12.75c0,7.04,5.7,12.75,12.75,12.75h114.32
		c7.05,0,12.75-5.71,12.75-12.75C552.69,208.14,546.99,202.44,539.94,202.44L539.94,202.44z M539.94,202.44"/>
	<path class="st0" d="M321.32,227.94h44.33c7.05,0,12.75-5.71,12.75-12.75c0-7.05-5.7-12.75-12.75-12.75h-44.33
		c-7.05,0-12.75,5.7-12.75,12.75C308.57,222.23,314.27,227.94,321.32,227.94L321.32,227.94z M321.32,227.94"/>
	<path class="st0" d="M539.94,250.95H321.32c-7.05,0-12.75,5.7-12.75,12.75c0,7.04,5.7,12.75,12.75,12.75h218.62
		c7.05,0,12.75-5.71,12.75-12.75C552.69,256.65,546.99,250.95,539.94,250.95L539.94,250.95z M539.94,250.95"/>
	<path class="st0" d="M539.94,299.46h-59.82c-7.04,0-12.75,5.71-12.75,12.75c0,7.04,5.71,12.75,12.75,12.75h59.82
		c7.05,0,12.75-5.71,12.75-12.75C552.69,305.17,546.99,299.46,539.94,299.46L539.94,299.46z M539.94,299.46"/>
	<path class="st0" d="M433.41,312.21c0-7.04-5.71-12.75-12.75-12.75H138.54c-7.04,0-12.75,5.71-12.75,12.75
		c0,7.04,5.71,12.75,12.75,12.75h282.11C427.7,324.96,433.41,319.25,433.41,312.21L433.41,312.21z M433.41,312.21"/>
	<path class="st0" d="M138.54,347.97c-7.04,0-12.75,5.71-12.75,12.75c0,7.04,5.71,12.75,12.75,12.75h205.89
		c7.04,0,12.75-5.71,12.75-12.75c0-7.04-5.71-12.75-12.75-12.75H138.54z M138.54,347.97"/>
	<path class="st0" d="M485.06,688.43l8.29-21.77h56.09l8.21,21.74c1.92,5.11,6.77,8.25,11.92,8.25c1.5,0,3.02-0.27,4.5-0.82
		c6.59-2.49,9.92-9.85,7.43-16.43l-45.45-120.42c-0.03-0.12-0.09-0.23-0.13-0.35c-2.4-5.84-8.03-9.62-14.35-9.62c0,0-0.01,0-0.02,0
		c-6.32,0.01-11.95,3.79-14.34,9.64c-0.04,0.1-0.08,0.19-0.12,0.29l-45.86,120.41c-2.51,6.58,0.8,13.94,7.38,16.45
		C475.18,698.31,482.56,695,485.06,688.43L485.06,688.43z M521.52,592.69l18.29,48.47h-36.75L521.52,592.69z M521.52,592.69"/>
	<path class="st0" d="M909.59,812.05c0,11.09-9.03,20.13-20.13,20.13h-27.11c-10.16,0-19.92,4.29-26.79,11.78
		c-6.88,7.5-10.32,17.63-9.44,27.78c1.17,13.46,3.32,25.57,6.4,36.07c-19.08-10.78-42.01-28.01-50.71-51.71
		c-5.25-14.32-18.97-23.93-34.16-23.93H432.06c-11.1,0-20.14-9.03-20.14-20.13V531.61c0-11.1,9.03-20.14,20.14-20.14h457.39
		c11.1,0,20.13,9.04,20.13,20.14V812.05z M935.09,531.61c0-25.16-20.47-45.64-45.64-45.64H432.06c-25.16,0-45.64,20.48-45.64,45.64
		v280.44c0,25.16,20.48,45.64,45.64,45.64h315.58c4.53,0,8.63,2.89,10.22,7.21c12.03,32.81,42.72,54.8,66.34,67.46
		c3.57,1.91,7.43,2.85,11.27,2.85c5.44,0,10.82-1.89,15.19-5.55c7.53-6.32,10.39-16.46,7.3-25.84c-3.13-9.51-5.3-21.04-6.45-34.27
		c-0.27-3.1,0.73-6.07,2.82-8.35c2.08-2.27,4.92-3.52,7.99-3.52h27.11c25.16,0,45.64-20.47,45.64-45.64V531.61z"/>
	<path class="st0" d="M861.46,623.61H642.83c-7.04,0-12.75,5.7-12.75,12.75c0,7.04,5.71,12.75,12.75,12.75h218.63
		c7.04,0,12.75-5.71,12.75-12.75C874.21,629.32,868.49,623.61,861.46,623.61L861.46,623.61z M861.46,623.61"/>
	<path class="st0" d="M861.46,672.13h-60.12c-7.04,0-12.75,5.7-12.75,12.75c0,7.04,5.71,12.75,12.75,12.75h60.12
		c7.04,0,12.75-5.71,12.75-12.75C874.21,677.83,868.49,672.13,861.46,672.13L861.46,672.13z M861.46,672.13"/>
	<path class="st0" d="M742.28,697.63c7.04,0,12.75-5.71,12.75-12.75c0-7.05-5.71-12.75-12.75-12.75h-99.45
		c-7.04,0-12.75,5.7-12.75,12.75c0,7.04,5.71,12.75,12.75,12.75H742.28z M742.28,697.63"/>
	<path class="st0" d="M874.21,733.39c0-7.05-5.71-12.75-12.75-12.75H575.75c-7.05,0-12.75,5.7-12.75,12.75
		c0,7.04,5.7,12.75,12.75,12.75h285.71C868.49,746.14,874.21,740.43,874.21,733.39L874.21,733.39z M874.21,733.39"/>
	<path class="st0" d="M447.31,733.39c0,7.04,5.7,12.75,12.75,12.75h56.46c7.04,0,12.75-5.71,12.75-12.75
		c0-7.05-5.71-12.75-12.75-12.75h-56.46C453.01,720.64,447.31,726.34,447.31,733.39L447.31,733.39z M447.31,733.39"/>
	<path class="st0" d="M460.06,794.65h205.88c7.05,0,12.75-5.71,12.75-12.75c0-7.05-5.7-12.75-12.75-12.75H460.06
		c-7.05,0-12.75,5.7-12.75,12.75C447.31,788.94,453.01,794.65,460.06,794.65L460.06,794.65z M460.06,794.65"/>
</g>
</svg>
