<?xml version="1.0" encoding="utf-8"?>
<!-- Generator: Adobe Illustrator 24.2.3, SVG Export Plug-In . SVG Version: 6.00 Build 0)  -->
<svg version="1.1" id="Capa_1" xmlns="http://www.w3.org/2000/svg" xmlns:xlink="http://www.w3.org/1999/xlink" x="0px" y="0px"
	 viewBox="0 0 1000 1000" style="enable-background:new 0 0 1000 1000;" xml:space="preserve">
<style type="text/css">
	.st0{fill:#4AD0FF;}
	.st1{fill:#FFFFFF;}
</style>
<g>
	<path class="st0" d="M195.72,195.72v687.93c0,7.31,5.93,13.23,13.23,13.23h502.72c7.3,0,13.22-5.93,13.22-13.23V328.02
		c0-0.29-0.14-0.55-0.17-0.83c-0.07-1.16-0.29-2.3-0.68-3.4c-0.15-0.42-0.25-0.83-0.44-1.25c-0.64-1.44-1.53-2.75-2.64-3.88
		L588.68,186.37c-1.12-1.12-2.44-2.01-3.89-2.64c-0.4-0.17-0.8-0.31-1.22-0.44c-1.11-0.38-2.25-0.61-3.42-0.69
		c-0.22,0.04-0.48-0.1-0.76-0.1H208.96C201.65,182.5,195.72,188.42,195.72,195.72L195.72,195.72z M679.73,314.79h-87.12v-87.12
		L679.73,314.79z M222.18,208.95h343.97v119.07c0,7.31,5.92,13.23,13.23,13.23h119.07v529.18H222.18V208.95z M222.18,208.95"/>
	<path class="st0" d="M751.36,791.05v26.45h39.69c7.31,0,13.23-5.92,13.23-13.23V116.35c0-7.31-5.92-13.23-13.23-13.23H288.33
		c-7.31,0-13.23,5.92-13.23,13.23v39.69h26.46v-26.46h476.25v661.47H751.36z M751.36,791.05"/>
	<path class="st0" d="M314.78,367.71h291.05c7.3,0,13.23,5.92,13.23,13.23v0c0,7.3-5.92,13.23-13.23,13.23H314.78
		c-7.3,0-13.23-5.92-13.23-13.23v0C301.56,373.63,307.48,367.71,314.78,367.71z"/>
	<path class="st0" d="M314.78,288.33h79.39c7.3,0,13.23,5.92,13.23,13.23v0.01c0,7.3-5.92,13.23-13.23,13.23h-79.39
		c-7.3,0-13.23-5.92-13.23-13.23v-0.01C301.56,294.25,307.48,288.33,314.78,288.33z"/>
	<path class="st0" d="M314.78,447.08h185.22c7.3,0,13.23,5.92,13.23,13.23v0.01c0,7.3-5.92,13.23-13.23,13.23H314.78
		c-7.3,0-13.23-5.92-13.23-13.23v-0.01C301.56,453,307.48,447.08,314.78,447.08z"/>
	<path class="st0" d="M552.91,447.08h52.92c7.3,0,13.23,5.92,13.23,13.23v0.01c0,7.3-5.92,13.23-13.23,13.23h-52.92
		c-7.3,0-13.23-5.92-13.23-13.23v-0.01C539.68,453,545.61,447.08,552.91,447.08z"/>
	<path class="st0" d="M314.78,526.46h291.05c7.3,0,13.23,5.92,13.23,13.23v0.01c0,7.3-5.92,13.23-13.23,13.23H314.78
		c-7.3,0-13.23-5.92-13.23-13.23v-0.01C301.56,532.38,307.48,526.46,314.78,526.46z"/>
	<path class="st0" d="M314.78,685.21h291.05c7.3,0,13.23,5.92,13.23,13.23v0.01c0,7.3-5.92,13.23-13.23,13.23H314.78
		c-7.3,0-13.23-5.92-13.23-13.23v-0.01C301.56,691.13,307.48,685.21,314.78,685.21z"/>
	<path class="st0" d="M433.85,605.84h171.99c7.3,0,13.23,5.92,13.23,13.23l0,0c0,7.3-5.92,13.23-13.23,13.23H433.85
		c-7.3,0-13.23-5.92-13.23-13.23l0,0C420.62,611.76,426.54,605.84,433.85,605.84z"/>
	<path class="st0" d="M314.78,605.84h66.16c7.3,0,13.23,5.92,13.23,13.23l0,0c0,7.3-5.92,13.23-13.23,13.23h-66.16
		c-7.3,0-13.23-5.92-13.23-13.23l0,0C301.56,611.76,307.48,605.84,314.78,605.84z"/>
	<path class="st0" d="M314.78,764.59h26.46c7.3,0,13.23,5.92,13.23,13.23v0.01c0,7.3-5.92,13.23-13.23,13.23h-26.46
		c-7.3,0-13.23-5.92-13.23-13.23v-0.01C301.56,770.51,307.48,764.59,314.78,764.59z"/>
	<path class="st0" d="M394.16,764.59h211.67c7.3,0,13.23,5.92,13.23,13.23v0.01c0,7.3-5.92,13.23-13.23,13.23H394.16
		c-7.3,0-13.23-5.92-13.23-13.23v-0.01C380.93,770.51,386.86,764.59,394.16,764.59z"/>
</g>
</svg>
