<?xml version="1.0" encoding="utf-8"?>
<!-- Generator: Adobe Illustrator 24.2.3, SVG Export Plug-In . SVG Version: 6.00 Build 0)  -->
<svg version="1.1" id="Capa_1" xmlns="http://www.w3.org/2000/svg" xmlns:xlink="http://www.w3.org/1999/xlink" x="0px" y="0px"
	 viewBox="0 0 1000 1000" style="enable-background:new 0 0 1000 1000;" xml:space="preserve">
<style type="text/css">
	.st0{fill:#4AD0FF;}
	.st1{fill:#FFFFFF;}
</style>
<g>
	<path class="st0" d="M868.95,788.71c0.02-0.58,0.03-1.16,0.03-1.73c-0.04-30.18-24.48-54.63-54.66-54.66V479.5l49.2-36.9
		c3.46-2.6,5.49-6.69,5.46-11.02c-0.03-4.33-2.11-8.39-5.61-10.94l-117.39-85.78V185.69c7.54,0,13.67-6.12,13.67-13.67v-54.66
		c0-7.54-6.12-13.67-13.67-13.67H609.33c-7.54,0-13.67,6.12-13.67,13.67v54.66c0,7.54,6.12,13.67,13.67,13.67v49.3l-101.27-74
		c-4.8-3.51-11.32-3.51-16.12,0L136.63,420.64c-3.5,2.55-5.58,6.62-5.61,10.94c-0.03,4.33,2,8.42,5.46,11.02l49.2,36.9v252.82
		c-30.18,0.04-54.63,24.48-54.66,54.66c0,0.57,0.01,1.15,0.03,1.73c-26.67,6.85-44.08,32.48-40.61,59.81
		c3.46,27.32,26.71,47.8,54.25,47.79h710.62c27.55,0.01,50.79-20.47,54.25-47.79C913.02,821.19,895.62,795.56,868.95,788.71
		L868.95,788.71z M622.99,131.02h109.33v27.33H622.99V131.02z M636.66,254.02v-68.33h81.99v129.19l-83.28-60.86H636.66z M500,188.94
		l332.35,242.87l-31.83,23.87L508.04,242.97c-4.79-3.49-11.29-3.49-16.08,0L199.48,455.68l-31.83-23.87L500,188.94z M117.36,841.64
		c0.02-14.93,11.99-27.09,26.92-27.33h0.04c0.69,0.1,1.4,0.18,2.11,0.23c4.6,0.28,9.03-1.76,11.8-5.45
		c2.77-3.69,3.48-8.52,1.9-12.86c-1.13-2.95-1.72-6.08-1.77-9.25c0.02-15.09,12.24-27.31,27.33-27.33v109.33h-41
		C129.6,868.96,117.38,856.73,117.36,841.64L117.36,841.64z M704.99,868.98H541V568.33h163.99V868.98z M732.32,868.98V554.66
		c0-7.54-6.12-13.67-13.67-13.67H527.33c-7.54,0-13.67,6.12-13.67,13.67v314.31H213.02V479.63L500,270.91l286.98,208.71v389.35
		H732.32z M855.31,868.98h-41V759.65c15.09,0.02,27.31,12.24,27.33,27.33c-0.04,3.17-0.64,6.3-1.77,9.26
		c-1.58,4.33-0.86,9.17,1.9,12.86c2.77,3.69,7.2,5.74,11.8,5.45c0.71-0.05,1.41-0.13,2.11-0.22h0.04
		c15.1,0.11,27.24,12.44,27.13,27.54C882.73,856.95,870.41,869.09,855.31,868.98L855.31,868.98z M855.31,868.98"/>
	<path class="st0" d="M445.34,541H281.35c-7.54,0-13.67,6.12-13.67,13.67v191.32c0,7.54,6.12,13.67,13.67,13.67h163.99
		c7.54,0,13.67-6.12,13.67-13.67V554.66C459,547.12,452.88,541,445.34,541L445.34,541z M431.67,636.66h-54.66v-68.33h54.66V636.66z
		 M349.68,568.33v68.33h-54.66v-68.33H349.68z M295.01,663.99h54.66v68.33h-54.66V663.99z M377.01,732.32v-68.33h54.66v68.33H377.01
		z M377.01,732.32"/>
	<path class="st0" d="M587.23,692.36c6.97,2.89,10.28,10.88,7.39,17.86c-2.88,6.97-10.88,10.28-17.86,7.39
		c-6.96-2.89-10.28-10.88-7.39-17.86C572.26,692.78,580.25,689.47,587.23,692.36L587.23,692.36z M587.23,692.36"/>
</g>
</svg>
