<?xml version="1.0" encoding="utf-8"?>
<!-- Generator: Adobe Illustrator 24.2.3, SVG Export Plug-In . SVG Version: 6.00 Build 0)  -->
<svg version="1.1" id="Capa_1" xmlns="http://www.w3.org/2000/svg" xmlns:xlink="http://www.w3.org/1999/xlink" x="0px" y="0px"
	 viewBox="0 0 1000 1000" style="enable-background:new 0 0 1000 1000;" xml:space="preserve">
<style type="text/css">
	.st0{fill:#4AD0FF;}
	.st1{fill:#FFFFFF;}
</style>
<g>
	<path class="st1" d="M653.57,527.92h-69.81v-42.15c27.29-20.43,46.16-50.13,53.05-83.5h23.73c27.64-0.04,52.02-18.13,60.04-44.58
		c8.03-26.45-2.18-55.04-25.14-70.43V164.93c-0.06-53.95-43.78-97.67-97.73-97.73H402.27c-53.95,0.06-97.67,43.78-97.73,97.73
		v122.32c-19.77,13.15-30.39,36.35-27.43,59.91c2.95,23.55,18.99,43.4,41.39,51.26v17.81c0,23.13,18.75,41.88,41.88,41.88h28.19
		c7.88,10.46,17.2,19.78,27.66,27.66v42.15h-69.81c-100.19,0.12-181.38,81.3-181.5,181.5v209.42c0,7.71,6.25,13.96,13.96,13.96
		h642.22c7.71,0,13.96-6.25,13.96-13.96V709.42C834.95,609.23,753.77,528.04,653.57,527.92L653.57,527.92z M402.27,555.84h22.14
		l18.05,18.05c7.16,7.15,15.58,12.9,24.84,16.95l-65.03,48.76V555.84z M500,601.22l50.56,37.9L500,689.68l-50.56-50.56L500,601.22z
		 M532.69,590.85c9.26-4.05,17.69-9.8,24.84-16.95l18.05-18.05h22.14v83.77L532.69,590.85z M577.96,209.44
		c-3.64-2.64-8.32-3.35-12.56-1.9l-33.7,11.17l-7.86-7.85c-2.63-2.6-6.17-4.05-9.87-4.04h-83.77c-7.71,0-13.96,6.25-13.96,13.96
		v41.88c0,7.71-6.25,13.96-13.96,13.96h-13.96v-97.73c0-15.42,12.5-27.92,27.92-27.92h167.53c15.42,0,27.92,12.5,27.92,27.92v97.73
		h-13.96c-7.71,0-13.96-6.25-13.96-13.96v-41.88C583.77,216.28,581.6,212.06,577.96,209.44L577.96,209.44z M660.55,374.35h-20.94
		v-69.81h20.94c19.28,0,34.9,15.62,34.9,34.9S679.83,374.35,660.55,374.35L660.55,374.35z M332.47,164.93
		c0.05-38.53,31.28-69.76,69.81-69.81h195.46c38.53,0.05,69.76,31.28,69.81,69.81v112.4c-2.31-0.37-4.64-0.61-6.98-0.71h-20.94
		v-97.73c0-30.84-25-55.84-55.84-55.84H416.23c-30.84,0-55.84,25-55.84,55.84v97.73h-20.94c-2.34,0.1-4.67,0.34-6.98,0.71V164.93z
		 M304.54,339.45c0-19.28,15.62-34.9,34.9-34.9h20.94v69.81h-20.94C320.17,374.35,304.54,358.72,304.54,339.45L304.54,339.45z
		 M360.39,430.19c-7.71,0-13.96-6.25-13.96-13.96v-13.96h16.75c1.97,9.6,4.96,18.96,8.93,27.92H360.39z M403.42,430.19
		c-9.89-16.95-15.11-36.22-15.11-55.84v-69.81h13.96c23.13,0,41.88-18.75,41.88-41.88v-27.92h64.03l9.87,9.87
		c3.74,3.74,9.27,5.04,14.28,3.36l23.51-7.82v22.51c0,23.13,18.75,41.88,41.88,41.88h13.96v69.81c0.07,43.88-25.6,83.72-65.58,101.8
		c-39.98,18.07-86.85,11.02-119.74-18.03H500v-27.92H403.42z M500,513.96c19.22,0,38.25-4,55.84-11.74v33.89l-18.05,18.05
		c-21.16,20.17-54.43,20.17-75.59,0l-18.05-18.05v-33.89C461.75,509.96,480.78,513.96,500,513.96L500,513.96z M807.15,904.88H192.85
		V709.42c0.1-84.78,68.8-153.47,153.57-153.57h27.92v111.69c0,5.29,2.99,10.13,7.72,12.49c4.73,2.36,10.39,1.85,14.63-1.32
		l30.19-22.66l63.24,63.24c5.45,5.45,14.29,5.45,19.74,0l63.24-63.24l30.19,22.66c2.42,1.81,5.36,2.79,8.38,2.79
		c7.71,0,13.96-6.25,13.96-13.96V555.84h27.92c84.78,0.1,153.47,68.8,153.57,153.57V904.88z M807.15,904.88"/>
</g>
</svg>
