<?xml version="1.0" encoding="utf-8"?>
<!-- Generator: Adobe Illustrator 24.2.3, SVG Export Plug-In . SVG Version: 6.00 Build 0)  -->
<svg version="1.1" id="Capa_1" xmlns="http://www.w3.org/2000/svg" xmlns:xlink="http://www.w3.org/1999/xlink" x="0px" y="0px"
	 viewBox="0 0 1000 1000" style="enable-background:new 0 0 1000 1000;" xml:space="preserve">
<style type="text/css">
	.st0{fill:#4AD0FF;}
	.st1{fill:#FFFFFF;}
</style>
<g>
	<path class="st1" d="M280.48,668.87h119.28c17.94,0,32.53-14.59,32.53-32.53v-93.28c0-17.93-14.59-32.52-32.53-32.52H280.48
		c-17.93,0-32.52,14.59-32.52,32.52v93.28C247.96,654.28,262.54,668.87,280.48,668.87z M280.07,636.34v-93.28
		c0-0.23,0.18-0.41,0.41-0.41h119.28c0.23,0,0.42,0.19,0.42,0.41v93.28c0,0.23-0.19,0.42-0.42,0.42H280.48
		C280.25,636.76,280.07,636.57,280.07,636.34z"/>
	<path class="st1" d="M280.48,849.31h119.28c17.94,0,32.53-14.59,32.53-32.53V723.5c0-17.94-14.59-32.53-32.53-32.53H280.48
		c-17.93,0-32.52,14.59-32.52,32.53v93.28C247.96,834.71,262.54,849.31,280.48,849.31z M280.07,816.78V723.5
		c0-0.23,0.19-0.42,0.41-0.42h119.28c0.23,0,0.42,0.19,0.42,0.42v93.28c0,0.22-0.19,0.41-0.42,0.41H280.48
		C280.25,817.19,280.07,817,280.07,816.78z"/>
	<path class="st1" d="M456.84,542.13c0,8.85,7.2,16.05,16.05,16.05h251.66c8.85,0,16.05-7.2,16.05-16.05s-7.2-16.05-16.05-16.05
		H472.9C464.05,526.08,456.84,533.28,456.84,542.13z"/>
	<path class="st1" d="M724.55,573.65H472.9c-8.85,0-16.05,7.2-16.05,16.05s7.2,16.05,16.05,16.05h251.66
		c8.85,0,16.05-7.2,16.05-16.05S733.41,573.65,724.55,573.65z"/>
	<path class="st1" d="M724.55,621.22H472.9c-8.85,0-16.05,7.2-16.05,16.05s7.2,16.05,16.05,16.05h251.66
		c8.85,0,16.05-7.2,16.05-16.05S733.41,621.22,724.55,621.22z"/>
	<path class="st1" d="M724.55,706.5H472.9c-8.85,0-16.05,7.2-16.05,16.05s7.2,16.05,16.05,16.05h251.66
		c8.85,0,16.05-7.2,16.05-16.05S733.41,706.5,724.55,706.5z"/>
	<path class="st1" d="M724.55,754.08H472.9c-8.85,0-16.05,7.2-16.05,16.05s7.2,16.05,16.05,16.05h251.66
		c8.85,0,16.05-7.2,16.05-16.05S733.41,754.08,724.55,754.08z"/>
	<path class="st1" d="M724.55,801.66H472.9c-8.85,0-16.05,7.2-16.05,16.05s7.2,16.05,16.05,16.05h251.66
		c8.85,0,16.05-7.2,16.05-16.05S733.41,801.66,724.55,801.66z"/>
	<path class="st1" d="M323.88,615.64c3.13,3.13,7.24,4.69,11.35,4.69c4.11,0,8.22-1.57,11.36-4.69l29.15-29.16
		c3.04-3.03,4.71-7.06,4.71-11.35c0-4.29-1.67-8.32-4.71-11.35c-6.26-6.26-16.44-6.26-22.7,0l-17.81,17.81l-8.04-8.04
		c-3.03-3.04-7.06-4.71-11.35-4.71s-8.32,1.67-11.35,4.71c-3.04,3.03-4.71,7.06-4.71,11.35c0,4.29,1.67,8.32,4.71,11.35
		L323.88,615.64z"/>
	<path class="st1" d="M323.88,796.07c3.13,3.13,7.24,4.69,11.35,4.69c4.11,0,8.22-1.57,11.35-4.7l29.16-29.16
		c6.26-6.26,6.26-16.45,0-22.71c-6.26-6.26-16.44-6.26-22.7,0l-17.81,17.82l-8.04-8.04c-6.26-6.26-16.44-6.26-22.7,0
		c-3.04,3.04-4.71,7.07-4.71,11.36c0,4.29,1.67,8.32,4.71,11.34L323.88,796.07z"/>
	<path class="st1" d="M818.8,131.49c0-25.89-21.06-46.95-46.95-46.95h-543.7c-25.89,0-46.95,21.06-46.95,46.95v737.02
		c0,25.89,21.06,46.95,46.95,46.95h543.7c25.89,0,46.96-21.06,46.96-46.95L818.8,131.49z M213.3,174.1v-42.61
		c0-8.18,6.66-14.84,14.84-14.84h41.51v57.46H213.3z M786.7,868.51c0,8.18-6.66,14.84-14.85,14.84h-543.7
		c-8.18,0-14.84-6.66-14.84-14.84v-662.3h573.38L786.7,868.51z M301.76,174.1v-57.46h470.08c8.18,0,14.84,6.66,14.84,14.84v42.61
		H301.76z"/>
	<path class="st1" d="M420.55,463.57c22.83,18.07,50.3,27.62,79.45,27.62c70.74,0,128.3-57.55,128.3-128.3
		c0-58.54-39.54-109.62-96.16-124.23c-0.53-0.14-1.09-0.25-1.71-0.33c-10.08-2.5-20.46-3.77-30.89-3.77
		c-70.67,0-128.16,57.49-128.16,128.16C371.38,402.3,389.31,439.06,420.55,463.57z M444.29,417.4c0-10.95,8.91-19.86,19.86-19.86
		h71.7c10.95,0,19.85,8.91,19.85,19.86v22.91c-16.43,11.94-35.8,18.23-56.16,18.23c-19.96,0-39.01-6.07-55.25-17.58V417.4z
		 M500,315.47c13.77,0,24.98,11.21,24.98,24.98c0,13.78-11.21,24.98-24.98,24.98c-13.77,0-24.98-11.21-24.98-24.98
		C475.02,326.67,486.22,315.47,500,315.47z M557.09,340.45c0-31.48-25.61-57.1-57.09-57.1c-31.48,0-57.1,25.61-57.1,57.1
		c0,9.51,2.34,18.75,6.81,27.03c-18.08,5.19-31.75,19.68-36.08,37.64c-0.47-0.95-0.92-1.9-1.36-2.85l-0.2-0.44
		c-0.26-0.58-0.52-1.17-0.77-1.76c-0.37-0.87-0.73-1.75-1.07-2.63l-0.12-0.31c-4.19-10.94-6.31-22.45-6.31-34.23
		c0-24,8.88-47,25-64.74l0.54-0.58c0.5-0.54,1-1.07,1.51-1.59c18.23-18.76,42.62-29.09,68.69-29.09c52.83,0,95.81,42.98,95.81,95.81
		c0,14.35-3.2,28.4-9.33,41.22c-4.68-17.38-18.2-31.39-35.75-36.46C554.74,359.2,557.09,349.96,557.09,340.45z"/>
</g>
</svg>
