<?xml version="1.0" encoding="utf-8"?>
<!-- Generator: Adobe Illustrator 24.2.3, SVG Export Plug-In . SVG Version: 6.00 Build 0)  -->
<svg version="1.1" id="Capa_1" xmlns="http://www.w3.org/2000/svg" xmlns:xlink="http://www.w3.org/1999/xlink" x="0px" y="0px"
	 viewBox="0 0 1000 1000" style="enable-background:new 0 0 1000 1000;" xml:space="preserve">
<style type="text/css">
	.st0{fill:#4AD0FF;}
	.st1{fill:#FFFFFF;}
</style>
<g>
	<path class="st1" d="M354.45,317.28c-96.46,0-174.66,78.2-174.66,174.66c0,96.46,78.2,174.66,174.66,174.66
		s174.66-78.2,174.66-174.66C529.11,395.47,450.91,317.28,354.45,317.28z M350.22,346.81c1.44-0.04,2.79-0.43,4.24-0.43
		c1.46,0,2.82,0.39,4.28,0.43c10.92,16.76,24.21,43.27,32.25,79.62h-73.05C326.01,389.96,339.34,363.47,350.22,346.81z
		 M395.84,455.55c1.32,11.45,2.28,23.39,2.28,36.39c0,12.99-0.97,24.93-2.31,36.39h-82.7c-1.34-11.46-2.32-23.4-2.32-36.39
		c0-13,0.96-24.93,2.29-36.39H395.84z M313.16,353.08c-9.57,18.77-18.98,43.18-25,73.36h-62.97
		C243.12,391.23,274.7,364.57,313.16,353.08z M208.9,491.93c0-12.64,2.12-24.69,5.17-36.39h69.67c-1.22,11.53-2.06,23.52-2.06,36.39
		c0,12.88,0.87,24.85,2.1,36.39h-69.71C211.03,516.62,208.9,504.57,208.9,491.93z M225.19,557.43h63.04
		c6.08,30.23,15.5,54.82,24.89,73.34C274.68,619.29,243.12,592.62,225.19,557.43z M358.68,637.06c-1.44,0.04-2.78,0.43-4.23,0.43
		s-2.79-0.38-4.24-0.43c-10.43-16.05-24.02-42.62-32.25-79.62h72.97C382.72,594.42,369.15,620.97,358.68,637.06z M395.8,630.77
		c9.4-18.54,18.81-43.11,24.88-73.34h63.03C465.79,592.62,434.23,619.28,395.8,630.77z M500,491.93c0,12.64-2.12,24.69-5.17,36.39
		h-69.7c1.23-11.53,2.1-23.51,2.1-36.39c0-12.87-0.84-24.86-2.05-36.39h69.66C497.87,467.25,500,479.3,500,491.93z M420.77,426.44
		L420.77,426.44c-6.02-30.17-15.42-54.55-25.02-73.36c38.46,11.48,70.04,38.15,87.97,73.36H420.77z"/>
	<rect x="208.9" y="753.92" class="st1" width="291.1" height="29.11"/>
	
		<rect x="680.07" y="561.56" transform="matrix(0.2589 -0.9659 0.9659 0.2589 -30.9073 1111.953)" class="st1" width="58.22" height="29.11"/>
	
		<rect x="558.34" y="744.26" transform="matrix(0.2588 -0.9659 0.9659 0.2588 -243.6103 1200.1467)" class="st1" width="203.76" height="29.11"/>
	
		<rect x="690.64" y="470.7" transform="matrix(0.2558 -0.9667 0.9667 0.2558 55.9305 1042.6652)" class="st1" width="29.11" height="28.61"/>
	
		<rect x="745.89" y="485.37" transform="matrix(0.2558 -0.9667 0.9667 0.2558 82.8646 1107.0059)" class="st1" width="29.11" height="28.61"/>
	
		<rect x="635.4" y="456.07" transform="matrix(0.2558 -0.9667 0.9667 0.2558 28.9669 978.3732)" class="st1" width="29.11" height="28.61"/>
	<path class="st1" d="M864.37,165.62L526.96,75.21c-5.05-1.35-10.11-2-15.1-2c-25.71,0-49.23,17.16-56.2,43.17l-30.43,113.57H121.58
		c-16.08,0-29.11,13.03-29.11,29.11v582.19c0,16.08,13.03,29.11,29.11,29.11h336.22l203.16,54.43c5.05,1.35,10.11,2,15.1,2
		c25.71,0,49.23-17.16,56.2-43.17l173.29-646.71C913.86,205.86,895.42,173.94,864.37,165.62z M121.58,841.25V259.06h436.64
		c16.05,0,29.11,13.06,29.11,29.11v523.97c0,16.05-13.06,29.11-29.11,29.11H121.58z M877.42,229.38L704.14,876.09
		c-3.41,12.71-14.96,21.59-28.09,21.59c-2.53,0-5.07-0.34-7.57-1.01l-101.51-27.2c27.96-4.25,49.46-28.18,49.46-57.34V581.37
		l14.91,4l15.07-56.24l-28.12-7.53l-1.86,6.96V297.22c9.07,2.43,19.55,5.24,29.71,7.96l34.42,112.55l24.1,6.46l-2.28-103.94
		c15.83,4.24,31.99,8.57,42.58,11.41l18.71,33l16.07,4.31l-2.76-45.94l25.36-38.41l-16.07-4.31l-32.7,19.22
		c-10.6-2.84-26.75-7.17-42.58-11.41l53.95-88.87l-24.1-6.46l-86.09,80.26c-16.93-4.54-35.4-9.49-45.41-12.17
		c-9.81-18.33-28.9-30.94-51.13-30.94H455.35l28.41-106.04c3.41-12.71,14.96-21.59,28.09-21.59c2.53,0,5.07,0.34,7.57,1.01
		l337.41,90.41c7.51,2.01,13.79,6.83,17.68,13.56C878.4,214.03,879.43,221.88,877.42,229.38z"/>
</g>
</svg>
