<?xml version="1.0" encoding="utf-8"?>
<!-- Generator: Adobe Illustrator 24.2.3, SVG Export Plug-In . SVG Version: 6.00 Build 0)  -->
<svg version="1.1" id="Capa_1" xmlns="http://www.w3.org/2000/svg" xmlns:xlink="http://www.w3.org/1999/xlink" x="0px" y="0px"
	 viewBox="0 0 1000 1000" style="enable-background:new 0 0 1000 1000;" xml:space="preserve">
<style type="text/css">
	.st0{fill:#4AD0FF;}
	.st1{fill:#FFFFFF;}
</style>
<g>
	<path class="st1" d="M905.64,922.13c9.1,0,16.49-7.39,16.49-16.49V575.85c0-9.1-7.39-16.49-16.49-16.49l0,0H790.22V500
		c0-7.62-5.22-14.25-12.62-16.03l-65.6-15.8c-14.62-98.09-95.42-174.22-195.51-181.88v-43.52h181.39c6.66,0,12.69-4.02,15.24-10.18
		c2.55-6.17,1.14-13.26-3.57-17.98l-54.31-54.29l54.31-54.29c4.71-4.72,6.12-11.81,3.57-17.98c-2.55-6.16-8.57-10.18-15.24-10.18
		H500c-9.1,0-16.49,7.39-16.49,16.49v191.92c-100.07,7.66-180.89,83.79-195.51,181.88l-65.6,15.8c-7.4,1.79-12.62,8.42-12.62,16.03
		v59.36H94.36c-9.1,0-16.49,7.39-16.49,16.49v329.79c0,9.1,7.39,16.49,16.49,16.49H905.64z M757.24,889.16H242.76h-32.98h-98.94
		V592.34h164.9V823.2h-32.98v-49.47c0-9.1-7.39-16.49-16.49-16.49h-65.96c-9.1,0-16.49,7.39-16.49,16.49v65.96
		c0,9.1,7.39,16.49,16.49,16.49h49.47h32.98h514.48h32.98h49.47c9.1,0,16.49-7.39,16.49-16.49v-65.96c0-9.1-7.39-16.49-16.49-16.49
		h-65.96c-9.1,0-16.49,7.39-16.49,16.49v49.47h-32.98V592.34h164.9v296.81h-98.94H757.24z M516.49,110.84h141.58l-37.82,37.81
		c-6.43,6.44-6.43,16.89,0,23.33l37.82,37.81H516.49V110.84z M500,318.61c86.28,0,158.62,59.21,176.92,141.1l-173.06-41.71
		c-2.54-0.61-5.19-0.61-7.73,0l-173.06,41.71C341.38,377.82,413.72,318.61,500,318.61L500,318.61z M242.76,512.98
		C276.99,504.74,477.52,456.41,500,451l257.24,61.98v46.38H242.76V512.98z M341.7,592.34V823.2h-32.98V592.34H341.7z M374.68,592.34
		h75.85V823.2h-75.85V592.34z M483.51,592.34h32.98V823.2h-32.98V592.34z M549.47,592.34h75.85V823.2h-75.85V592.34z M658.3,592.34
		h32.98V823.2H658.3V592.34z M209.78,823.2H176.8v-32.98h32.98V823.2z M790.22,823.2v-32.98h32.98v32.98H790.22z M790.22,823.2"/>
	<path class="st1" d="M757.24,641.81v65.96c0,9.1,7.39,16.49,16.49,16.49h65.96c9.1,0,16.49-7.39,16.49-16.49v-65.96
		c0-9.1-7.39-16.49-16.49-16.49h-65.96C764.62,625.32,757.24,632.71,757.24,641.81L757.24,641.81z M790.22,658.3h32.98v32.98h-32.98
		V658.3z M790.22,658.3"/>
	<path class="st1" d="M160.31,724.26h65.96c9.1,0,16.49-7.39,16.49-16.49v-65.96c0-9.1-7.39-16.49-16.49-16.49h-65.96
		c-9.1,0-16.49,7.39-16.49,16.49v65.96C143.82,716.87,151.21,724.26,160.31,724.26L160.31,724.26z M176.8,658.3h32.98v32.98H176.8
		V658.3z M176.8,658.3"/>
</g>
</svg>
