<?xml version="1.0" encoding="utf-8"?>
<!-- Generator: Adobe Illustrator 24.2.3, SVG Export Plug-In . SVG Version: 6.00 Build 0)  -->
<svg version="1.1" id="Capa_1" xmlns="http://www.w3.org/2000/svg" xmlns:xlink="http://www.w3.org/1999/xlink" x="0px" y="0px"
	 viewBox="0 0 1000 1000" style="enable-background:new 0 0 1000 1000;" xml:space="preserve">
<style type="text/css">
	.st0{fill:#4AD0FF;}
	.st1{fill:#FFFFFF;}
</style>
<g>
	<path class="st1" d="M918.9,625.67h-13.96v-80.99c-0.09-41.07-25.77-77.73-64.34-91.85l-89.25-32.42v-17.45
		c24.48-12.23,44.33-32.07,56.55-56.55h13.26c17.2,0.05,32.67-10.44,38.98-26.44c6.31-16,2.16-34.23-10.44-45.93l6.07-36.46
		c7.08-42.43-4.87-85.84-32.69-118.68c-27.81-32.84-68.66-51.76-111.69-51.75h-31.82c-43.03-0.01-83.88,18.92-111.69,51.75
		c-27.82,32.84-39.77,76.25-32.69,118.68l6.07,36.46c-12.6,11.7-16.74,29.93-10.44,45.93s21.78,26.5,38.98,26.44h13.26
		c12.23,24.48,32.07,44.33,56.55,56.55v17.45l-89.25,32.44c-38.56,14.12-64.24,50.76-64.34,91.83v80.99h-69.82v27.93h488.72v55.85
		H499.43c-9.39-13.74-22.66-24.36-38.12-30.53l-86.98-34.78v-6.67c17.04-4.7,30.87-17.17,37.33-33.64l2.35-6.1h16.18
		c20.19,0.02,37.51-14.38,41.17-34.24c3.67-19.84-7.38-39.48-26.24-46.67l7.35-19.13c15.61-40.55,10.24-86.2-14.36-122.02
		c-24.6-35.82-65.26-57.23-108.71-57.22h-49.75c-43.46-0.03-84.14,21.37-108.76,57.2c-24.61,35.82-29.99,81.47-14.38,122.04
		l7.36,19.13c-18.88,7.19-29.92,26.85-26.24,46.7c3.68,19.86,21.03,34.25,41.23,34.21h16.18l2.35,6.1
		c6.45,16.46,20.28,28.94,37.33,33.64v6.67l-86.96,34.78c-15.46,6.16-28.74,16.79-38.14,30.53H95.06V653.6h97.74v-27.93H81.1
		c-7.71,0-13.96,6.25-13.96,13.96v83.78c0,7.71,6.25,13.96,13.96,13.96h16.42c-1.56,6.33-2.38,12.82-2.46,19.34V918.9
		c0,7.71,6.25,13.96,13.96,13.96H500c7.71,0,13.96-6.25,13.96-13.96V756.72c-0.07-6.52-0.89-13.01-2.46-19.34h365.5V918.9
		c0,7.71,6.25,13.96,13.96,13.96l0,0c7.71,0,13.96-6.25,13.96-13.96V737.38h13.96c7.71,0,13.96-6.25,13.96-13.96v-83.78
		C932.87,631.92,926.62,625.67,918.9,625.67z M835.12,304.51c0,7.71-6.26,13.96-13.96,13.96h-3.24c2.12-9.16,3.21-18.53,3.24-27.93
		C828.87,290.55,835.12,296.8,835.12,304.51z M569.82,318.48c-7.71,0-13.96-6.26-13.96-13.96c0-7.71,6.26-13.96,13.96-13.96
		c0.03,9.4,1.12,18.77,3.24,27.93H569.82z M569.82,234.69v27.93c-0.73,0-1.4,0.18-2.11,0.21L562.74,233
		c-5.73-34.35,3.95-69.48,26.46-96.05c22.51-26.57,55.56-41.89,90.38-41.89h31.82c34.82,0,67.87,15.32,90.38,41.89
		c22.51,26.56,32.19,61.69,26.46,96.05l-4.97,29.84c-0.71,0-1.4-0.21-2.11-0.21v-27.93c0-7.71-6.26-13.96-13.96-13.96h-21.34
		c-32.99,0.09-63.15-18.57-77.81-48.14c-2.62-4.4-7.37-7.09-12.49-7.09c-5.13,0-9.87,2.69-12.5,7.09
		c-14.67,29.61-44.91,48.28-77.94,48.14h-21.34C576.07,220.73,569.82,226.99,569.82,234.69z M597.74,290.55v-41.89h7.37
		c35.27,0.12,68.63-16.05,90.37-43.82c21.75,27.77,55.1,43.94,90.37,43.82h7.37v41.89c0,53.98-43.76,97.74-97.74,97.74
		C641.51,388.29,597.74,344.53,597.74,290.55z M667.56,424.4v-11.42c9.16,2.12,18.53,3.21,27.93,3.24
		c9.4-0.03,18.77-1.12,27.93-3.24v11.42l-27.93,27.93L667.56,424.4z M674.23,470.57l-25.25,18.93l-7.95-39.88l8.97-3.28
		L674.23,470.57z M740.97,446.34l9,3.28L742,489.5l-25.25-18.93L740.97,446.34z M655.45,625.67h-71.67v-69.82h-27.93v69.82h-41.89
		v-80.99c0.06-29.34,18.41-55.54,45.97-65.63l54.53-19.83l11.49,57.53c0.95,4.69,4.24,8.56,8.72,10.26
		c4.48,1.7,9.51,0.99,13.35-1.88l3.7-2.79l15.23,22.83L655.45,625.67z M683.66,625.67l9.97-69.82h3.71l9.97,69.82H683.66z
		 M701.98,527.93H689l-14.92-22.35l21.41-16.05l21.39,16.05L701.98,527.93z M877.01,625.67h-41.89v-69.82H807.2v69.82h-71.67
		l-11.49-80.47l15.22-22.85l3.71,2.79c3.84,2.87,8.86,3.58,13.35,1.88c4.47-1.7,7.76-5.57,8.72-10.26l11.49-57.43l54.53,19.83
		c27.53,10.07,45.87,36.22,45.97,65.53V625.67z M444.15,555.85c0,7.71-6.26,13.96-13.96,13.96h-5.45l10.36-26.94
		C440.51,544.92,444.11,550.07,444.15,555.85z M178.84,569.82c-6.65-0.12-12.3-4.91-13.49-11.45c-1.19-6.54,2.39-13.02,8.57-15.48
		l10.36,26.94H178.84z M223.44,593.81l-30.64-79.65v-0.2h-0.07l-10.11-26.29c-12.29-31.96-8.05-67.93,11.34-96.16
		c19.39-28.24,51.44-45.1,85.68-45.11h49.75c34.24,0.01,66.29,16.87,85.68,45.11c19.38,28.23,23.63,64.2,11.34,96.16l-10.11,26.29
		v0.18l-30.63,79.66c-4.21,10.77-14.58,17.87-26.15,17.9h-110C237.97,611.66,227.63,604.56,223.44,593.81z M346.4,639.63v8.18
		l-4.09,4.09c-21.16,20.17-54.43,20.17-75.6,0l-4.09-4.09v-8.18H346.4z M486.04,904.94h-55.85V807.2h-27.93v97.74H206.77V807.2
		h-27.93v97.74h-55.85V756.72c-0.08-22.87,13.85-43.44,35.12-51.85l87.2-34.91l1.66,1.66c31.78,31.78,83.31,31.78,115.09,0
		l1.66-1.66l87.21,34.91c21.26,8.42,35.19,28.99,35.11,51.85V904.94z"/>
	<path class="st1" d="M81.1,276.58h363.05c7.71,0,13.96-6.26,13.96-13.96v-33.26l48.14-24.07c4.74-2.36,7.73-7.2,7.73-12.5
		c0-5.29-2.99-10.13-7.73-12.49l-48.14-24.05v-33.26c0-7.71-6.26-13.96-13.96-13.96H81.1c-7.71,0-13.96,6.26-13.96,13.96v139.63
		C67.13,270.33,73.39,276.58,81.1,276.58z M95.06,136.95h335.12v27.93c0,5.29,2.99,10.13,7.72,12.5l30.88,15.43l-30.88,15.45
		c-4.73,2.36-7.72,7.19-7.72,12.48v27.93H95.06V136.95z"/>
	<path class="st1" d="M332.44,178.84H136.95c-7.71,0-13.96,6.25-13.96,13.96c0,7.71,6.25,13.96,13.96,13.96h195.49
		c7.71,0,13.96-6.25,13.96-13.96C346.4,185.09,340.15,178.84,332.44,178.84z"/>
	<circle class="st1" cx="388.29" cy="192.8" r="13.96"/>
</g>
</svg>
