<?xml version="1.0" encoding="utf-8"?>
<!-- Generator: Adobe Illustrator 24.2.3, SVG Export Plug-In . SVG Version: 6.00 Build 0)  -->
<svg version="1.1" id="Capa_1" xmlns="http://www.w3.org/2000/svg" xmlns:xlink="http://www.w3.org/1999/xlink" x="0px" y="0px"
	 viewBox="0 0 1000 1000" style="enable-background:new 0 0 1000 1000;" xml:space="preserve">
<style type="text/css">
	.st0{fill:#4AD0FF;}
	.st1{fill:#FFFFFF;}
</style>
<g>
	<path class="st1" d="M275.67,347.26h448.67c19.5,0,35.38-15.87,35.38-35.38V178.27c0-19.51-15.87-35.38-35.38-35.38H275.67
		c-19.51,0-35.38,15.87-35.38,35.38v133.61C240.29,331.39,256.16,347.26,275.67,347.26L275.67,347.26z M265.26,178.27
		c0-5.74,4.67-10.41,10.41-10.41h448.67c5.74,0,10.41,4.67,10.41,10.41v133.61c0,5.74-4.67,10.41-10.41,10.41H275.67
		c-5.74,0-10.41-4.67-10.41-10.41V178.27z M265.26,178.27"/>
	<path class="st1" d="M656.75,290.92c0-6.45-5.15-11.68-11.51-11.68c-6.36,0-11.51,5.23-11.51,11.68c0,6.44,5.15,11.67,11.51,11.67
		C651.6,302.6,656.75,297.37,656.75,290.92L656.75,290.92z M656.75,290.92"/>
	<path class="st1" d="M631,210.18c12.59-7.93,35.46-4.2,35.46,10.51c0,9.09-6.16,13.17-20.91,14.87c-6.93,0.8-10.5,4.33-10.24,10.98
		l0.55,13.99c0.21,5.1,4.4,9.17,9.54,9.17c5.01,0,9.2-3.86,9.51-8.77l0.5-7.91c17.7-2.86,30.77-13.44,30.77-32.33
		c0-43.43-69.39-38.01-69.39-18.38C616.8,209.66,624.92,214.02,631,210.18L631,210.18z M631,210.18"/>
	<path class="st1" d="M313.82,227.45h245.56c6.9,0,12.49-5.59,12.49-12.49c0-6.89-5.59-12.49-12.49-12.49H313.82
		c-6.9,0-12.49,5.59-12.49,12.49C301.33,221.87,306.92,227.45,313.82,227.45L313.82,227.45z M313.82,227.45"/>
	<path class="st1" d="M313.82,287.67h245.56c6.9,0,12.49-5.59,12.49-12.49c0-6.9-5.59-12.49-12.49-12.49H313.82
		c-6.9,0-12.49,5.59-12.49,12.49C301.33,282.08,306.92,287.67,313.82,287.67L313.82,287.67z M313.82,287.67"/>
	<path class="st1" d="M240.29,566.8c0,19.51,15.87,35.38,35.38,35.38h448.67c19.5,0,35.38-15.87,35.38-35.38V433.2
		c0-19.51-15.87-35.38-35.38-35.38H275.67c-19.51,0-35.38,15.87-35.38,35.38V566.8z M265.26,433.2c0-5.74,4.67-10.41,10.41-10.41
		h448.67c5.74,0,10.41,4.67,10.41,10.41v133.6c0,5.74-4.67,10.41-10.41,10.41H275.67c-5.74,0-10.41-4.67-10.41-10.41V433.2z
		 M265.26,433.2"/>
	<path class="st1" d="M656.75,545.84c0-6.44-5.15-11.67-11.51-11.67c-6.36,0-11.51,5.23-11.51,11.67c0,6.45,5.15,11.68,11.51,11.68
		C651.6,557.52,656.75,552.29,656.75,545.84L656.75,545.84z M656.75,545.84"/>
	<path class="st1" d="M631,465.11c12.59-7.93,35.46-4.2,35.46,10.51c0,9.09-6.16,13.17-20.91,14.87c-6.93,0.8-10.5,4.32-10.24,10.98
		l0.55,13.99c0.21,5.1,4.4,9.16,9.54,9.16c5.01,0,9.2-3.85,9.51-8.77l0.5-7.91c17.7-2.86,30.77-13.44,30.77-32.34
		c0-43.44-69.39-38.01-69.39-18.38C616.8,464.58,624.92,468.94,631,465.11L631,465.11z M631,465.11"/>
	<path class="st1" d="M313.82,482.38h245.56c6.9,0,12.49-5.59,12.49-12.49c0-6.89-5.59-12.49-12.49-12.49H313.82
		c-6.9,0-12.49,5.59-12.49,12.49C301.33,476.79,306.92,482.38,313.82,482.38L313.82,482.38z M313.82,482.38"/>
	<path class="st1" d="M313.82,542.6h245.56c6.9,0,12.49-5.59,12.49-12.49c0-6.9-5.59-12.49-12.49-12.49H313.82
		c-6.9,0-12.49,5.59-12.49,12.49C301.33,537,306.92,542.6,313.82,542.6L313.82,542.6z M313.82,542.6"/>
	<path class="st1" d="M686.18,730.54c0-32.82-41.97-40.66-65.02-26.27c-7.84,4.9-4.43,17.18,4.92,17.18c1.81,0,3.49-0.51,4.92-1.41
		c12.59-7.93,35.46-4.2,35.46,10.51c0,9.09-6.16,13.17-20.91,14.87c-6.93,0.8-10.5,4.33-10.24,10.99l0.55,13.99
		c0.21,5.09,4.4,9.16,9.54,9.16c5.01,0,9.2-3.85,9.51-8.77l0.5-7.91C673.12,760.02,686.18,749.44,686.18,730.54L686.18,730.54z
		 M686.18,730.54"/>
	<path class="st1" d="M656.75,800.77c0-6.44-5.15-11.67-11.51-11.67c-6.36,0-11.51,5.23-11.51,11.67c0,6.45,5.15,11.68,11.51,11.68
		C651.6,812.45,656.75,807.22,656.75,800.77L656.75,800.77z M656.75,800.77"/>
	<path class="st1" d="M559.38,712.33H313.82c-6.9,0-12.49,5.59-12.49,12.49c0,6.9,5.59,12.49,12.49,12.49h245.56
		c6.9,0,12.49-5.59,12.49-12.49C571.86,717.92,566.28,712.33,559.38,712.33L559.38,712.33z M559.38,712.33"/>
	<path class="st1" d="M559.38,772.55H313.82c-6.9,0-12.49,5.59-12.49,12.49c0,6.89,5.59,12.49,12.49,12.49h245.56
		c6.9,0,12.49-5.59,12.49-12.49C571.86,778.13,566.28,772.55,559.38,772.55L559.38,772.55z M559.38,772.55"/>
	<path class="st1" d="M759.72,688.12c0-19.5-15.87-35.38-35.38-35.38H275.67c-19.51,0-35.38,15.87-35.38,35.38v133.61
		c0,19.51,15.87,35.38,35.38,35.38h448.67c19.5,0,35.38-15.87,35.38-35.38V688.12z M734.74,821.73c0,5.74-4.67,10.41-10.41,10.41
		H275.67c-5.74,0-10.41-4.67-10.41-10.41V688.12c0-5.74,4.67-10.41,10.41-10.41h448.67c5.74,0,10.41,4.67,10.41,10.41V821.73z
		 M240.29,821.73"/>
	<path class="st1" d="M167.89,210.2v659.7c0,31.04,25.25,56.29,56.29,56.29h551.65c31.04,0,56.29-25.25,56.29-56.29V130.1
		c0-31.04-25.25-56.29-56.29-56.29l0,0H224.18c-31.04,0-56.29,25.25-56.29,56.29V210.2z M192.86,130.1
		c0-17.27,14.05-31.32,31.32-31.32h551.65c17.27,0,31.32,14.05,31.32,31.32V869.9c0,17.27-14.05,31.32-31.32,31.32H224.18
		c-17.27,0-31.32-14.05-31.32-31.32V210.2V130.1z M775.82,73.81"/>
</g>
</svg>
