<svg width="33" height="50" xmlns="http://www.w3.org/2000/svg"><g fill="none" fill-rule="evenodd"><path d="M20.578 20.9a.751.751 0 0 1-.752-.75v-6.455a.751.751 0 0 1 1.504 0v6.454a.752.752 0 0 1-.752.751zm2.715.753a.75.75 0 0 1-.644-1.138l2.807-4.657a.752.752 0 0 1 1.288.774l-2.806 4.657a.752.752 0 0 1-.645.364zm1.589 1.474a.751.751 0 0 1-.434-1.364l3.684-2.596A.75.75 0 1 1 29 20.394l-3.684 2.595a.748.748 0 0 1-.433.138zm.746 1.538a.75.75 0 0 1-.213-1.47l2.98-.882a.75.75 0 1 1 .427 1.44l-2.98.88a.746.746 0 0 1-.214.032zm-7.764-3.012a.752.752 0 0 1-.645-.364l-2.807-4.657a.753.753 0 0 1 1.288-.774l2.807 4.657a.75.75 0 0 1-.643 1.138zm-1.59 1.474a.75.75 0 0 1-.432-.138l-3.685-2.595a.75.75 0 1 1 .867-1.227l3.684 2.596a.75.75 0 0 1-.434 1.364zm-.745 1.538a.75.75 0 0 1-.214-.031l-2.98-.881a.75.75 0 1 1 .426-1.44l2.981.882a.75.75 0 0 1-.213 1.47zm-.213 16.094V25.404H25.84v19.558" fill="#368A50"/><path fill="#5EBC77" d="M29.97 43.47l1.734-1.58-4.811-6.604h-9.774l-4.66-2.077-5.187-17.663h-2.33L7.798 39.04l-2.256 2.82 3.46 4.235v2.944h23.905z"/><g fill="#368A50"><path d="M10.268 35.95L5.2 17.664l2.599 21.374m4.661-5.828L7.946 44.801 5.543 41.86z"/><path d="M11.832 31.072l.628 2.137-4.662 5.83-.605-4.985zM7.272 8.816v6.73h-2.61a2.424 2.424 0 0 1-2.427-2.423V8.816h5.037zm7.238 40.222l7.819-13.752h4.564L16.764 49.038z"/></g><path d="M7.272 12.525v3.021h-2.61c-.203 0-.4-.025-.588-.072v-1.536c0-.78.633-1.413 1.415-1.413h1.783z" fill="#5EBC77"/><path fill="#FFA700" d="M2.04 7.665l-.86-6.211 2.288 1.784L5.151 0l1.087 3.04 2.09-1.586L7.6 7.665"/><path d="M20.578 20.15a5.258 5.258 0 0 0-5.262 5.253v2.552a5.258 5.258 0 0 0 5.262 5.254 5.258 5.258 0 0 0 5.262-5.254v-2.552a5.258 5.258 0 0 0-5.262-5.253z" fill="#5EBC77"/><g fill="#368A50"><path d="M17.12 27.955v-2.552a5.257 5.257 0 0 1 4.36-5.175 5.258 5.258 0 0 0-6.164 5.175v2.552a5.258 5.258 0 0 0 6.164 5.176 5.257 5.257 0 0 1-4.36-5.176z"/><path d="M25.84 25.404v2.55l-.027.004A5.231 5.231 0 0 0 24.3 24.79a5.25 5.25 0 0 0-3.722-1.538 5.258 5.258 0 0 0-5.254 4.978 5.04 5.04 0 0 1-.007-.275v-2.551c0-1.451.59-2.765 1.54-3.716a5.25 5.25 0 0 1 3.721-1.538 5.258 5.258 0 0 1 5.263 5.254z"/></g><path fill="#47A562" d="M.093 7.615h9.322v2.402H.093z"/><path d="M.093 7.614h3.993v2.402H.093zM23.61 26.618l-2.86-.67h-.007a.739.739 0 0 0-.062-.012c-.007 0-.014-.002-.02-.003a.758.758 0 0 0-.165 0c-.007.001-.013.003-.02.003a.78.78 0 0 0-.062.011l-.007.002-2.86.669a.75.75 0 1 0 .343 1.461l1.937-.453v1.124a.751.751 0 0 0 1.503 0v-1.124l1.937.453a.754.754 0 0 0 .904-.56.75.75 0 0 0-.561-.901zm6.36 16.852l-4.148 3.794 4.848-2.468m-13.55-9.51l-2.925 4.172 1.121-4.976" fill="#368A50"/></g></svg>