<svg id="Capa_1" data-name="Capa 1" xmlns="http://www.w3.org/2000/svg" viewBox="0 0 500 500"><defs><style>.cls-1{fill:#fff;}</style></defs><path class="cls-1" d="M368.2,285.06h0a29.68,29.68,0,0,0-41.85,0l-22.16,22.16a29.61,29.61,0,0,0-8,27.1l-7,7c-3.79,3.33-38.44-3.64-82.69-47.89s-51.21-78.9-47.88-82.69l7-7a29.62,29.62,0,0,0,27.11-8l22.16-22.19a29.69,29.69,0,0,0,0-41.86L129.62,46.49a29.63,29.63,0,0,0-41.84,0L65.61,68.66a29.67,29.67,0,0,0-8,27.1c-5.77,5.83-6.2,6.35-6.18,6.35-24.43,27.14-29.08,69.82-13,120.37A410.08,410.08,0,0,0,277.6,461.6a183.46,183.46,0,0,0,55,9.37c1.39.06,2.77.09,4.16.09a94,94,0,0,0,64.2-25.49l3.24-3.24a29.61,29.61,0,0,0,27.11-8l22.19-22.17a29.67,29.67,0,0,0,0-41.84Zm-233-97.75c-28,28.07,5.23,86.81,47.92,129.5,28.06,28.06,69.8,58,102.62,58a36.54,36.54,0,0,0,26.88-10.15l3.59-3.59,61.18,61.2c-17.84,17.69-49.7,20.43-89.6,7.81A377.29,377.29,0,0,1,69.85,212.28c-12.7-40.06-9.94-71.94,7.74-89.78l61.22,61.22ZM91.52,89.56l17.18-17.2L189,152.65,171.8,169.84Zm336,301.72L410.35,408.5l-80.29-80.29,17.2-17.2Z"/><path class="cls-1" d="M376.57,241.72a16.42,16.42,0,0,0,11.69,4.84h0A16.58,16.58,0,0,0,404.81,230,134.9,134.9,0,0,0,269.94,95.12a16.56,16.56,0,0,0,0,33.12h0A101.76,101.76,0,0,1,371.72,230v0A16.49,16.49,0,0,0,376.57,241.72ZM375.22,230Z"/><path class="cls-1" d="M412.1,87.83A201.12,201.12,0,0,0,270.44,28.94c-9.13.1-17.09,7.25-17.09,16.56A16.57,16.57,0,0,0,269.9,62.05h0c92.58,0,167.91,75.31,167.93,168A16.56,16.56,0,0,0,471,230,201.13,201.13,0,0,0,412.1,87.83Z"/><path class="cls-1" d="M253.41,177.85a16.42,16.42,0,0,0,4.84,11.7,16.84,16.84,0,0,0,12.22,4.85,34.5,34.5,0,0,1,24.68,10.47A35.13,35.13,0,0,1,305.56,230a16.54,16.54,0,1,0,33.08,0A68.77,68.77,0,0,0,270,161.3h-7.28l1,1.25a16.59,16.59,0,0,0-10.25,15.3Z"/></svg>