<svg id="Capa_1" data-name="Capa 1" xmlns="http://www.w3.org/2000/svg" viewBox="0 0 250 250"><defs><style>.cls-1{fill:#c84058;}.cls-2{fill:#fff;}</style></defs><path id="Trazado_120" data-name="Trazado 120" class="cls-1" d="M125,240A115,115,0,0,1,10,125h0A115,115,0,1,1,125,240h0"/><path id="Trazado_121" data-name="Trazado 121" class="cls-2" d="M189.7,108.05a28,28,0,0,0-28-28H90.13a28,28,0,0,0-28,28h0v33.31a28,28,0,0,0,28,28H161.7a28,28,0,0,0,28-28h0ZM147.6,127.2l-32.09,15.89c-1.26.67-5.54-.24-5.54-1.67V108.83c0-1.45,4.31-2.36,5.57-1.64l30.73,16.71c1.29.72,2.63,2.59,1.33,3.3Z"/></svg>